Coordinates
nRows=9
nColumns=38

# SIMM Motion File Header:
name Coordinates
datacolumns 38
datarows 9
otherdata 1
range 2.08699999999999970000 2.09499999999999980000

Units are S.I. units (second, meters, Newtons, ...)
Angles are in degrees.

endheader
time	pelvis_tilt	pelvis_list	pelvis_rotation	pelvis_tx	pelvis_ty	pelvis_tz	hip_flexion_r	hip_adduction_r	hip_rotation_r	knee_angle_r	ankle_angle_r	subtalar_angle_r	mtp_angle_r	hip_flexion_l	hip_adduction_l	hip_rotation_l	knee_angle_l	ankle_angle_l	subtalar_angle_l	mtp_angle_l	lumbar_extension	lumbar_bending	lumbar_rotation	arm_flex_r	arm_add_r	arm_rot_r	elbow_flex_r	pro_sup_r	wrist_flex_r	wrist_dev_r	arm_flex_l	arm_add_l	arm_rot_l	elbow_flex_l	pro_sup_l	wrist_flex_l	wrist_dev_l
      2.08699999999999970000	     -9.21544743191213380000	      3.93658658089982530000	      4.36743014193963570000	      0.70434146826763822000	      1.00880983114580090000	     -0.33488402744102824000	     -4.86469372854658300000	     -0.08269227739048057300	     -6.18279850623076040000	    -43.22216734815962300000	    -20.36081952018134800000	      0.00000000000012411692	     -0.00000000000010191123	     30.75203175348352900000	      7.38713513941845610000	     -0.85783382493359417000	    -18.47095695136208300000	     -7.50235908519767140000	     -0.00000000000003294246	     -0.00000000000001082182	      0.19802671046924314000	     -4.31944286069369280000	      4.59977507096446470000	    -15.76904091276949100000	    -14.21331140240829200000	      1.19909467373784870000	     90.64992273250425100000	     89.77744642714128500000	     -0.00000000000005528381	     -0.00000000000002096023	    -37.90101867456946400000	    -37.67890256435666900000	     14.26677415443308800000	    104.27843663234130000000	     73.77118127262920700000	     -0.00000000000000078147	     -0.00000000000001100989
      2.08800000000000010000	     -9.17436461736596520000	      3.91206101525147250000	      4.39361254342094480000	      0.70433134287297261000	      1.00844786476698940000	     -0.33494478065233557000	     -4.74568300800571040000	     -0.06685089512988730300	     -6.18464459177095180000	    -43.71681697027404600000	    -20.26053150982056300000	      0.00000000000012470443	     -0.00000000000010242675	     30.67117735202297600000	      7.36876353415825580000	     -0.95112028195312559000	    -18.39657700152461200000	     -7.57097808387882940000	     -0.00000000000003307266	     -0.00000000000001095494	      0.14809358722298033000	     -4.31745316381162960000	      4.54497604905392110000	    -15.79436917348208900000	    -14.22130948294318900000	      1.22705475958448560000	     90.51871017622391900000	     89.68440875310165000000	     -0.00000000000005551947	     -0.00000000000002104469	    -37.78206970656452100000	    -37.65628771346114000000	     14.29626463098435500000	    104.27349851259721000000	     73.78790517703964700000	     -0.00000000000000078254	     -0.00000000000001111130
      2.08900000000000000000	     -9.13254065580372300000	      3.88844326082862950000	      4.41885548983398560000	      0.70431903307853172000	      1.00807688796449570000	     -0.33500524796933834000	     -4.62435183452870110000	     -0.05349599079602978400	     -6.18924410207658580000	    -44.21562249922796900000	    -20.15877799611828200000	      0.00000000000012529282	     -0.00000000000010294154	     30.59248570002060000000	      7.35044746913878380000	     -1.04862135428050120000	    -18.33650113447074800000	     -7.63588632172006760000	     -0.00000000000003320154	     -0.00000000000001108956	      0.09726387198032636300	     -4.31624175159580850000	      4.48991898776383640000	    -15.81925418506016400000	    -14.22950047227434600000	      1.25524302659752030000	     90.38556460222344000000	     89.58494534426401400000	     -0.00000000000005575624	     -0.00000000000002112987	    -37.66161595614843800000	    -37.63369168111561400000	     14.32636466064707600000	    104.26783278629273000000	     73.80640682005925200000	     -0.00000000000000078356	     -0.00000000000001121247
      2.08999999999999990000	     -9.09004859136158670000	      3.86566422485620590000	      4.44325269879932970000	      0.70430467692134158000	      1.00769678138840700000	     -0.33506564534404493000	     -4.50072845389973790000	     -0.04256287138925431800	     -6.19664717400721440000	    -44.71835014282532900000	    -20.05549140329582200000	      0.00000000000012588189	     -0.00000000000010345636	     30.51596325027552600000	      7.33221586253006840000	     -1.14979922341770150000	    -18.29065469040594000000	     -7.69668890212098500000	     -0.00000000000003333011	     -0.00000000000001122526	      0.04564988319038499500	     -4.31573228676685260000	      4.43450665371884420000	    -15.84370901175132600000	    -14.23790523199991600000	      1.28368462533410880000	     90.25053310518099200000	     89.47929467586531900000	     -0.00000000000005599328	     -0.00000000000002121573	    -37.53977334466401300000	    -37.61107926807308400000	     14.35702361024504000000	    104.26146152673417000000	     73.82673225807286600000	     -0.00000000000000078448	     -0.00000000000001131377
      2.09099999999999970000	     -9.04717803084489350000	      3.84357570024903690000	      4.46717897615985480000	      0.70428822929886126000	      1.00730712929896590000	     -0.33512658118434901000	     -4.37464832916339310000	     -0.03389478779045981800	     -6.20714135358842260000	    -45.22474844055920300000	    -19.95060412712699000000	      0.00000000000012647148	     -0.00000000000010397082	     30.44194796348545800000	      7.31412250420727790000	     -1.25426546620896560000	    -18.25920118475354300000	     -7.75328202617987120000	     -0.00000000000003346184	     -0.00000000000001136301	     -0.00641245915063309420	     -4.31579202804160560000	      4.37838776698879520000	    -15.86776064777076200000	    -14.24652952070501400000	      1.31240090844949280000	     90.11366124680455400000	     89.36771966581716200000	     -0.00000000000005623069	     -0.00000000000002130154	    -37.41671815530586500000	    -37.58842048132043300000	     14.38818071375647600000	    104.25441178572270000000	     73.84893127716164000000	     -0.00000000000000078572	     -0.00000000000001141488
      2.09200000000000010000	     -9.00390176519757010000	      3.82211536222638770000	      4.49069071557892130000	      0.70426984739381959000	      1.00690799544148240000	     -0.33518821380105424000	     -4.24624876458269720000	     -0.02742574319258703600	     -6.22073311247497960000	    -45.73456912846602100000	    -19.84406044840029900000	      0.00000000000012706041	     -0.00000000000010448422	     30.37031679937216900000	      7.29617900681702110000	     -1.36149120404313570000	    -18.24203101671466200000	     -7.80499602852582260000	     -0.00000000000003359565	     -0.00000000000001150295	     -0.05892872150377490000	     -4.31633993509725760000	      4.32149588482317170000	    -15.89139808650184800000	    -14.25540397235533500000	      1.34141800624415470000	     89.97500374424220100000	     89.25047282374576700000	     -0.00000000000005646952	     -0.00000000000002138696	    -37.29254218073344200000	    -37.56568184453305300000	     14.41979265490449100000	    104.24671504722613000000	     73.87303628012749400000	     -0.00000000000000078703	     -0.00000000000001151598
      2.09300000000000000000	     -8.96012288518983620000	      3.80124284943723860000	      4.51375621821761990000	      0.70424972174449141000	      1.00649955414094410000	     -0.33525056865038094000	     -4.11572374210179160000	     -0.02311093339736474500	     -6.23734321415413360000	    -46.24757524242631500000	    -19.73580799775672300000	      0.00000000000012764926	     -0.00000000000010499870	     30.30084893817625500000	      7.27837341115135490000	     -1.47100314924215820000	    -18.23897411331003600000	     -7.85127703789263620000	     -0.00000000000003372962	     -0.00000000000001164366	     -0.11198105542154478000	     -4.31730962329624110000	      4.26384466735502430000	    -15.91460180036134800000	    -14.26456463430272600000	      1.37076239109607640000	     89.83461550168340200000	     89.12781113423443500000	     -0.00000000000005670955	     -0.00000000000002147231	    -37.16731110487321400000	    -37.54283043269345700000	     14.45182155050820300000	    104.23840310659173000000	     73.89907242493490000000	     -0.00000000000000078803	     -0.00000000000001161700
      2.09399999999999990000	     -8.91579404000242270000	      3.78090326475888050000	      4.53636527067909960000	      0.70422800302065980000	      1.00608189929925420000	     -0.33531369275756068000	     -3.98320649880010610000	     -0.02088888759572063800	     -6.25690000626952790000	    -46.76354394898654500000	    -19.62579337798811000000	      0.00000000000012823728	     -0.00000000000010551369	     30.23339566048830200000	      7.26067981505004050000	     -1.58242061232175680000	    -18.24990101819685500000	     -7.89159058072521800000	     -0.00000000000003386233	     -0.00000000000001178569	     -0.16559849265787011000	     -4.31862435482494080000	      4.20543044656223590000	    -15.93736051853776700000	    -14.27404609158260700000	      1.40045840030341950000	     89.69255135545968500000	     89.00000125437542000000	     -0.00000000000005695002	     -0.00000000000002155906	    -37.04109540442629400000	    -37.51983482295233300000	     14.48422893676026900000	    104.22950829899982000000	     73.92706296916942700000	     -0.00000000000000078919	     -0.00000000000001171790
      2.09499999999999980000	     -8.87089861223716980000	      3.76103175258147050000	      4.55851832638948110000	      0.70420481564690729000	      1.00565507248482230000	     -0.33537765054051505000	     -3.84879115362329300000	     -0.02068781561532411600	     -6.27933341940980670000	    -47.28226414421778400000	    -19.51396378263964200000	      0.00000000000012882284	     -0.00000000000010602706	     30.16784730510203600000	      7.24307259078006640000	     -1.69532018562595100000	    -18.27468440588501200000	     -7.92539106831317500000	     -0.00000000000003399408	     -0.00000000000001192765	     -0.21977755277335695000	     -4.32019888891192940000	      4.14624126961715690000	    -15.95966884228954400000	    -14.28388444374836700000	      1.43052849252550770000	     89.54886829905333900000	     88.86731645541360100000	     -0.00000000000005719107	     -0.00000000000002164551	    -36.91396688212645900000	    -37.49666381345368600000	     14.51697711343680700000	    104.22006395220303000000	     73.95702880879633800000	     -0.00000000000000079027	     -0.00000000000001181834
